<svg xmlns="http://www.w3.org/2000/svg" viewBox="0 0 1024 1024" width="1em" height="1em">
  <path d="M512 64C264.6 64 64 264.6 64 512s200.6 448 448 448 448-200.6 448-448S759.4 64 512 64zm0 820c-205.4 0-372-166.6-372-372s166.6-372 372-372 372 166.6 372 372-166.6 372-372 372z" fill="currentColor" />
  <path d="M650.7 370.7a32 32 0 0 0-45.2 0L512 464.6l-93.5-93.9a32 32 0 0 0-45.2 45.2l93.9 93.9-93.9 93.9a32 32 0 1 0 45.2 45.2l93.9-93.9 93.9 93.9a32 32 0 1 0 45.2-45.2l-93.9-93.9 93.5-93.9a32 32 0 0 0 0-45.2z" fill="currentColor" />
</svg>